<?xml version="1.0" encoding="UTF-8"?>
<svg width="364px" height="190px" viewBox="0 0 364 190" version="1.1" xmlns="http://www.w3.org/2000/svg" xmlns:xlink="http://www.w3.org/1999/xlink"><g id="HOME" stroke="none" stroke-width="1" fill="none" fill-rule="evenodd"><g transform="translate(-538.000000, -1110.000000)" id="LIFE" fill="#FFFFFF"><g transform="translate(538.000000, 1110.000000)"><polygon id="L" points="52.44 83.28 2.4 83.28 2.4 0 0 0 0 85.68 52.44 85.68" style="transform: matrix(1, 0, 0, 1, 0, 30);"></polygon> <polygon id="I" points="116.010001 104 116.010001 189.68 118.410001 189.68 118.410001 104" style="transform: matrix(1, 0, 0, 1, 0, -75);"></polygon> <polygon id="F" points="192.060002 94.84 192.060002 57.4 242.460002 57.4 242.460002 55 189.660002 55 189.660002 140.68 192.060002 140.68 192.060002 97.24 237.660002 97.24 237.660002 94.84" style="transform: matrix(1, 0, 0, 1, 0, -25);"></polygon> <polygon id="E" points="308.070003 97.28 308.070003 56.24 359.310003 56.24 359.310003 53.84 308.070003 53.84 308.070003 16.4 362.550003 16.4 362.550003 14 305.670003 14 305.670003 99.68 363.030003 99.68 363.030003 97.28" style="transform: matrix(1, 0, 0, 1, 0, 15);"></polygon></g></g></g></svg>